{"title":"Planes.2013.SWEDiSH.DVDRip.x264-DREAMFiLM.se","uid":9559896,"size":1326276401,"categoryP":"video","categoryS":"movies","magnet":"?xt=urn:btih:cf383d2571b4bf7b42d28a105ef23ba27b36c9f0&amp;dn=Planes.2013.SWEDiSH.DVDRip.x264-DREAMFiLM.se&amp;tr=udp%3A%2F%2Ftracker.openbittorrent.com%3A80&amp;tr=udp%3A%2F%2Fopen.demonii.com%3A1337&amp;tr=udp%3A%2F%2Ftracker.coppersurfer.tk%3A6969&amp;tr=udp%3A%2F%2Fexodus.desync.com%3A6969","seeders":1,"leechers":0,"uploader":"antonida","files":-1,"time":1391404579,"description":"888888ba                                        .8888b oo dP            \n88    `8b                                       88   '    88            \n88     88 88d888b. .d8888b. .d8888b. 88d8b.d8b. 88aaa  dP 88 88d8b.d8b. \n88     88 88'  `88 88ooood8 88'  `88 88'`88'`88 88     88 88 88'`88'`88 \n88    .8P 88       88.  ... 88.  .88 88  88  88 88     88 88 88  88  88 \n8888888P  dP       `88888P' `88888P8 dP  dP  dP dP     dP dP dP  dP  dP\n\n\n\nFormat : MPEG-4 \nFormat profile : Base Media \nCodec ID : isom \nFile size : 1.24 GiB \nDuration : 1h 27mn \nOverall bit rate mode : Variable \nOverall bit rate : 2 013 Kbps \nWriting application : Lavf53.32.100 \n\nVideo \nID : 1 \nFormat : MPEG-4 Visual \nFormat profile : Simple@L1 \nFormat settings, BVOP : No \nFormat settings, QPel : No \nFormat settings, GMC : No warppoints \nFormat settings, Matrix : Default (H.263) \nCodec ID : 20 \nDuration : 1h 27mn \nBit rate mode : Constant \nBit rate : 1 843 Kbps \nWidth : 720 pixels \nHeight : 570 pixels \nDisplay aspect ratio : 16:9 \nFrame rate mode : Constant \nFrame rate : 25.000 fps \nColor space : YUV \nChroma subsampling : 4:2:0 \nBit depth : 8 bits \nScan type : Progressive \nCompression mode : Lossy \nBits/(Pixel*Frame) : 0.180 \nStream size : 1.13 GiB (92%) \nWriting library : Lavc53.61.100 \n\nAudio \nID : 2 \nFormat : AAC \nFormat/Info : Advanced Audio Codec \nFormat profile : LC \nCodec ID : 40 \nDuration : 1h 27mn \nBit rate mode : Variable \nBit rate : 165 Kbps \nMaximum bit rate : 500 Kbps \nChannel(s) : 2 channels \nChannel positions : Front: L R \nSampling rate : 48.0 KHz \nCompression mode : Lossy \nStream size : 104 MiB (8%) \nLanguage : Swedish \n","torrent":{"xt":"urn:btih:cf383d2571b4bf7b42d28a105ef23ba27b36c9f0","amp;dn":"Planes.2013.SWEDiSH.DVDRip.x264-DREAMFiLM.se","amp;tr":["udp%3A%2F%2Ftracker.openbittorrent.com%3A80","udp%3A%2F%2Fopen.demonii.com%3A1337","udp%3A%2F%2Ftracker.coppersurfer.tk%3A6969","udp%3A%2F%2Fexodus.desync.com%3A6969"],"infoHash":"cf383d2571b4bf7b42d28a105ef23ba27b36c9f0","infoHashBuffer":{"type":"Buffer","data":[207,56,61,37,113,180,191,123,66,210,138,16,94,242,59,162,123,54,201,240]},"announce":[],"urlList":[]}}